# xmcd CD database file
#
# Track frame offsets:
#	150
#	16138
#	33564
#	48347
#	67736
#	84189
#	108351
#	133652
#	152618
#	170875
#	189269
#
# Disc length: 2812 seconds
#
# Revision: 0
# Processed by: cddbd v1.5.1PL2 Copyright (c) Steve Scherf et al.
# Submitted via: CDex 1.51
#
DISCID=800afa0b
DTITLE=Warratahs - One of Two Things
DYEAR=1999
DGENRE=Country
TTITLE0=Before This Night Is Through 
TTITLE1=Lonely In The Crowd 
TTITLE2=Ghost Train 
TTITLE3=Warratahs, Caroline Easther/Rescue Me
TTITLE4=Midnight Sun
TTITLE5=Warratahs,  Sam Hunt/Cape Turnagain
TTITLE6=Far Away 
TTITLE7=Warratahs, Sam Hunt/Fire Song
TTITLE8=One Of Two Things
TTITLE9=Electric Love
TTITLE10=Bruno's Last Ride (live)
EXTD=YEAR: 1999
EXTT0=
EXTT1=
EXTT2=
EXTT3=
EXTT4=
EXTT5=
EXTT6=
EXTT7=
EXTT8=
EXTT9=
EXTT10=
PLAYORDER=
